<?xml version="1.0" encoding="UTF-8"?>
<svg
  version="1.1"
  viewBox="0 0 1024 1024"
  xmlns="http://www.w3.org/2000/svg"
>
  <path
    fill="#2c3e66"
    d="m64 0c-35.456 0-64 28.544-64 64v896c0 35.456 28.544 64 64 64h191.21l5.5059-62.9v-0.0195c0.6406-7.0473 3.6456-14.027 8.875-18.889 5.8857-5.4866 13.908-7.6856 22.008-7.6856 5.3259 0 10.948 0.99501 17.514 2.6973l-0.096-0.0234c4.9534 1.2383 11.93 2.002 20.658 2.002 11.59 0 21.47-1.6278 29.781-4.6328 8.0386-3.1235 14.354-7.7269 19.592-14.229l0.059-0.0742 0.059-0.0703c5.4007-6.4808 9.7739-15.251 12.793-26.715 3.0143-11.668 4.6464-26.36 4.6464-43.92v-324.51h112.29v322.51c0 28.085-3.4503 53.696-10.512 76.764-7.0719 23.102-17.831 43.175-32.293 59.818-14.3 16.712-32.347 29.597-53.621 38.441-1.3244 0.5507-2.769 0.924-4.1172 1.4395h234.46c-6.2161-1.9408-12.394-3.9777-18.412-6.4043l-0.031-0.012-0.029-0.012c-14.208-5.8228-27.639-12.829-40.258-21.008l-0.039-0.0254-0.041-0.0273c-12.427-8.2066-23.635-17.4-33.572-27.574l-6.0723-6.2148 30.902-51.109 0.4238-0.53906c3.2416-4.1257 7.1934-7.6256 11.668-10.322 5.2336-3.2437 11.372-4.9883 17.531-4.9883 8.7095 0 16.921 3.5719 24.619 9.1465l-0.209-0.14844c6.2904 4.3382 13.736 9.267 22.287 14.75 0 2e-3 0.01 3e-3 0.01 4e-3 8.1802 5.112 17.89 9.9328 29.111 14.387 10.419 3.8412 23.428 5.9473 39.078 5.9473 23.831 0 40.652-5.4991 52.117-15.312 11.404-9.9813 17.15-23.566 17.15-43.936 0-10.788-2.5615-18.258-7.2031-24.02l-0.061-0.0742-0.059-0.0762c-5.108-6.5675-12.048-12.213-21.293-16.934l-0.168-0.086c-9.6479-5.1319-20.815-9.5373-33.525-13.139-13.495-3.8235-27.205-7.9819-41.133-12.475-14.255-4.5983-28.273-10.115-42.047-16.543-14.43-6.734-27.405-15.58-38.754-26.445-11.642-11.147-20.95-24.95-27.922-41.057l-0.078-0.1836c-6.9648-16.914-10.197-36.949-10.197-60.051 0-19.058 3.7711-37.737 11.205-55.723l0.023-0.0586 0.025-0.0586c7.709-18.068 18.869-34.184 33.25-48.086l0.033-0.0332 0.035-0.0312c14.719-13.995 32.604-25.107 53.35-33.357 21.127-8.4029 44.962-12.484 71.281-12.484 29.67 0 57.319 4.6505 82.721 14.059 25.3 9.3704 47.179 22.642 65.275 39.785l6.1426 5.8184-25.865 49.768c-3.0619 6.1238-7.1276 11.4-12.812 14.859-5.1305 3.2504-11.191 4.7051-17.268 4.7051-7.2594 0-14.106-2.59-20.805-6.6094l-0.1387-0.084-0.1367-0.0879c-5.3197-3.4046-11.709-7.1982-19.131-11.346-6.7868-3.7926-15.033-7.3229-24.723-10.482l-0.1406-0.0449-0.1406-0.0508c-8.4866-3.0174-19.137-4.6953-31.977-4.6953-11.534 0-21.25 1.4556-29.182 4.0996l-0.078 0.0273-0.078 0.0234c-7.9207 2.5114-14.326 5.9551-19.535 10.248-4.9092 4.2262-8.4308 9.0924-10.887 15.057l-0.022 0.0547-0.023 0.0547c-2.4805 5.8467-3.7852 12.401-3.7852 19.998 0 9.2678 2.2983 15.759 6.75 21.191 5.3525 6.2486 12.524 11.802 21.865 16.572 9.8105 5.0097 21.154 9.5836 34.021 13.658 13.422 4.2504 27.061 8.8356 40.912 13.748 14.458 4.8196 28.575 10.559 42.342 17.209 14.335 6.6985 27.237 15.371 38.545 25.947 11.619 10.642 20.862 23.768 27.646 39.006 7.2877 15.859 10.691 34.515 10.691 55.734 0 23.107-4.0331 45.054-12.131 65.549-7.9037 20.345-19.748 38.351-35.307 53.67-15.404 15.164-34.243 27.11-56.162 35.83l-0.049 0.02-0.049 0.018c-0.9913 0.3837-2.0676 0.6378-3.0704 1.0039h170.77c35.456 0 64-28.544 64-64v-896c0-35.456-28.544-64-64-64z"
  />
</svg>
