<?xml version="1.0" encoding="iso-8859-1"?>
<!-- Generator: Adobe Illustrator 19.0.0, SVG Export Plug-In . SVG Version: 6.00 Build 0)  -->
<svg version="1.1" id="Capa_1" xmlns="http://www.w3.org/2000/svg" xmlns:xlink="http://www.w3.org/1999/xlink" x="0px" y="0px"
	 viewBox="0 0 470 470" style="enable-background:new 0 0 470 470;" xml:space="preserve">
<g>
	<path d="M470,37.5C470,16.822,453.178,0,432.5,0c-52.199,0-100.796,25.973-130,68.61V67.5C302.5,30.28,272.22,0,235,0
		s-67.5,30.28-67.5,67.5v1.111C138.296,25.973,89.698,0,37.5,0C16.822,0,0,16.822,0,37.5c0,128.542,26.079,252.871,77.5,369.568
		V432.5c0,20.678,16.822,37.5,37.5,37.5h240c20.678,0,37.5-16.822,37.5-37.5v-25.43C443.92,290.373,470,166.043,470,37.5z M432.5,15
		c12.406,0,22.5,10.094,22.5,22.5c0,114.444-21.015,225.486-62.5,330.634v-76.617c23.186-76.527,35.735-156.041,37.323-236.471
		C430.714,55.023,431.605,55,432.5,55c4.143,0,7.5-3.357,7.5-7.5s-3.357-7.5-7.5-7.5c-3.593,0-7.156,0.179-10.686,0.498
		c-0.072,0.006-0.143,0.011-0.214,0.019c-36.566,3.374-69.322,23.592-88.82,54.912c-6.528-5.184-13.476-9.857-20.782-13.97
		C338.031,40.286,383.512,15,432.5,15z M344.239,105.464c15.418-26.115,41.203-43.817,70.55-48.935
		c-1.305,59.829-8.783,119.129-22.289,177.022v-14.741C392.5,174.346,373.973,134.13,344.239,105.464z M235,15
		c28.948,0,52.5,23.552,52.5,52.5v2.819c-4.908-1.74-9.926-3.243-15.042-4.496C271.577,45.921,255.115,30,235,30
		s-36.577,15.921-37.458,35.823c-5.116,1.253-10.135,2.756-15.042,4.496V67.5C182.5,38.552,206.051,15,235,15z M257.016,62.856
		c-7.197-1.011-14.544-1.546-22.016-1.546s-14.819,0.535-22.016,1.546C215.13,52.671,224.185,45,235,45
		C245.815,45,254.87,52.671,257.016,62.856z M15,37.5C15,25.094,25.093,15,37.5,15c48.987,0,94.469,25.287,120.502,66.459
		c-7.306,4.112-14.254,8.786-20.781,13.97C117.723,64.108,84.967,43.891,48.4,40.517c-0.071-0.008-0.143-0.013-0.215-0.019
		C44.655,40.179,41.093,40,37.5,40c-4.142,0-7.5,3.357-7.5,7.5s3.358,7.5,7.5,7.5c0.895,0,1.785,0.023,2.676,0.046
		c1.59,80.431,14.138,159.943,37.324,236.471v76.618C36.015,262.985,15,151.943,15,37.5z M77.5,218.811v14.739
		C63.994,175.657,56.516,116.358,55.211,56.529c29.347,5.117,55.132,22.819,70.551,48.934C96.028,134.129,77.5,174.345,77.5,218.811
		z M355,455H115c-12.407,0-22.5-10.094-22.5-22.5v-27.095c0-0.036,0-114.905,0-114.905c0-0.025,0-0.05,0-0.075v-71.614
		c0-78.575,63.925-142.5,142.5-142.5c78.575,0,142.5,63.925,142.5,142.5v71.619c0,0.022,0,0.045,0,0.066v114.868
		c0,0.017,0,0.033,0,0.051V432.5C377.5,444.906,367.406,455,355,455z"/>
	<path d="M115,214.832c-4.142,0-7.5,3.357-7.5,7.5v15.028c0,4.143,3.358,7.5,7.5,7.5s7.5-3.357,7.5-7.5v-15.028
		C122.5,218.189,119.142,214.832,115,214.832z"/>
	<path d="M124.381,171.695c-3.901-1.385-8.191,0.654-9.577,4.558c-1.776,5.002-3.251,10.169-4.383,15.357
		c-0.883,4.047,1.682,8.043,5.729,8.926c0.539,0.118,1.076,0.175,1.606,0.175c3.449,0,6.555-2.395,7.32-5.903
		c0.998-4.573,2.297-9.127,3.863-13.535C130.325,177.369,128.285,173.081,124.381,171.695z"/>
	<path d="M141.208,156.752c2.585-3.895,5.444-7.667,8.495-11.213c2.702-3.14,2.347-7.875-0.793-10.576
		c-3.141-2.704-7.876-2.347-10.577,0.793c-3.456,4.016-6.693,8.288-9.621,12.699c-2.292,3.451-1.351,8.105,2.1,10.396
		c1.276,0.848,2.716,1.253,4.142,1.253C137.381,160.104,139.764,158.927,141.208,156.752z"/>
	<path d="M165.637,128.444c1.503,0,3.021-0.451,4.34-1.389c3.821-2.717,7.849-5.217,11.971-7.431
		c3.649-1.96,5.019-6.507,3.059-10.156s-6.508-5.019-10.156-3.059c-4.671,2.509-9.235,5.343-13.565,8.421
		c-3.375,2.4-4.167,7.082-1.766,10.458C160.981,127.347,163.292,128.444,165.637,128.444z"/>
	<path d="M205.664,109.938c0.606,0,1.224-0.074,1.838-0.229c4.53-1.142,9.188-2.008,13.842-2.574c4.112-0.501,7.04-4.239,6.54-8.352
		c-0.5-4.11-4.237-7.026-8.351-6.539c-5.278,0.643-10.559,1.625-15.697,2.92c-4.017,1.013-6.452,5.089-5.439,9.105
		C199.254,107.67,202.309,109.938,205.664,109.938z"/>
	<path d="M248.769,107.147c4.646,0.569,9.3,1.439,13.831,2.586c0.617,0.156,1.236,0.231,1.846,0.231
		c3.352,0,6.405-2.264,7.265-5.662c1.017-4.016-1.415-8.095-5.431-9.11c-5.14-1.301-10.417-2.288-15.687-2.934
		c-4.104-0.497-7.853,2.421-8.356,6.532S244.657,106.644,248.769,107.147z"/>
	<path d="M288.14,119.672c4.118,2.217,8.144,4.72,11.963,7.44c1.319,0.939,2.839,1.392,4.344,1.392c2.344,0,4.652-1.096,6.116-3.15
		c2.402-3.373,1.615-8.057-1.759-10.46c-4.326-3.081-8.887-5.918-13.555-8.431c-3.647-1.962-8.196-0.598-10.159,3.05
		S284.492,117.708,288.14,119.672z"/>
	<path d="M341.363,148.567c-2.929-4.421-6.167-8.703-9.625-12.729c-2.698-3.141-7.435-3.503-10.576-0.803
		c-3.142,2.698-3.502,7.434-0.803,10.576c3.054,3.556,5.913,7.338,8.5,11.241c1.443,2.179,3.828,3.358,6.259,3.358
		c1.423,0,2.861-0.404,4.136-1.249C342.707,156.674,343.651,152.021,341.363,148.567z"/>
	<path d="M353.869,200.669c4.048-0.879,6.618-4.872,5.74-8.92c-1.127-5.192-2.597-10.365-4.369-15.373
		c-1.381-3.906-5.667-5.951-9.572-4.568c-3.905,1.382-5.95,5.668-4.568,9.572c1.563,4.414,2.857,8.973,3.851,13.549
		c0.762,3.513,3.868,5.912,7.322,5.912C352.799,200.841,353.334,200.784,353.869,200.669z"/>
	<path d="M355,214.958c-4.143,0-7.5,3.357-7.5,7.5V237.5c0,4.143,3.357,7.5,7.5,7.5s7.5-3.357,7.5-7.5v-15.042
		C362.5,218.315,359.143,214.958,355,214.958z"/>
	<path d="M310,260H160c-12.407,0-22.5,10.094-22.5,22.5v105c0,12.406,10.093,22.5,22.5,22.5h150c12.406,0,22.5-10.094,22.5-22.5v-15
		c0-4.143-3.357-7.5-7.5-7.5s-7.5,3.357-7.5,7.5v15c0,4.136-3.364,7.5-7.5,7.5H160c-4.136,0-7.5-3.364-7.5-7.5V315h135v22.5
		c0,4.143,3.357,7.5,7.5,7.5s7.5-3.357,7.5-7.5V315h15v27.5c0,4.143,3.357,7.5,7.5,7.5s7.5-3.357,7.5-7.5v-60
		C332.5,270.094,322.406,260,310,260z M152.5,300v-17.5c0-4.136,3.364-7.5,7.5-7.5h150c4.136,0,7.5,3.364,7.5,7.5V300H152.5z"/>
</g>
<g>
</g>
<g>
</g>
<g>
</g>
<g>
</g>
<g>
</g>
<g>
</g>
<g>
</g>
<g>
</g>
<g>
</g>
<g>
</g>
<g>
</g>
<g>
</g>
<g>
</g>
<g>
</g>
<g>
</g>
</svg>
