<?xml version="1.0" encoding="UTF-8" standalone="no"?>
<svg
  version="1.1"
  viewBox="0 0 256 256"
  xmlns="http://www.w3.org/2000/svg"
>
  <path
    fill="#000000"
    d="m 25.357105,237.7801 c -1.621054,-2.75341 -1.876874,-2.30068 14.294692,-25.29993 6.981013,-9.92842 12.692749,-18.4827 12.692749,-19.00949 0,-0.52678 -2.259995,-2.94138 -5.022204,-5.36576 C 25.331661,168.80362 12.707001,134.75119 16.748649,105.63868 23.620216,56.14191 67.588958,18.73701 121.89342,16.19032 c 16.73194,-0.78467 28.7,0.79762 44.29004,5.85563 51.94116,16.85168 82.70795,66.72427 71.53105,115.95092 -9.07362,39.96309 -42.21863,70.37341 -86.47887,79.34372 -10.27196,2.08185 -35.43483,2.39209 -43.88245,0.54103 -5.62588,-1.23273 -6.23447,-1.07355 -39.867807,10.42806 -18.785094,6.42392 -35.653338,11.68457 -37.484984,11.69026 -2.082947,0.008 -3.822052,-0.82489 -4.643294,-2.21984 z m 49.531175,-23.23262 25.6105,-8.70795 8.73715,1.55861 c 12.49963,2.22983 35.53471,1.26919 46.76491,-1.95027 34.62385,-9.92585 60.20683,-33.96523 69.42984,-65.24056 3.44378,-11.67791 3.72053,-32.08799 0.58974,-43.48959 C 223.06864,85.96817 213.23419,68.01006 205.73086,59.66807 193.08428,45.60802 172.99042,33.98419 152.88464,29.0978 137.53762,25.36791 115.93735,25.60911 101.03544,29.67676 81.892399,34.90205 68.379447,42.50147 54.571391,55.80731 44.362026,65.64532 37.650808,75.8903 32.52021,89.46946 c -3.809724,10.08318 -4.004835,11.39958 -4.049465,27.32038 -0.05295,18.89438 1.421594,25.65994 8.606341,39.48772 5.447702,10.48467 13.103049,20.20716 21.87954,27.78757 4.051105,3.49898 6.881636,6.89663 6.881636,8.26036 0,2.1095 -2.349212,5.78435 -16.473366,25.76922 -3.554691,5.02969 -4.091229,6.36454 -2.347482,5.84033 1.243205,-0.37384 13.785097,-4.59815 27.870866,-9.38756 z m 23.883444,-71.96169 0.425849,-9.33058 -3.492621,-0.78189 C 88.863165,130.94156 81.90317,126.29051 78.44898,120.94191 71.450961,110.10592 75.262299,95.65547 86.977074,88.60816 c 4.398665,-2.6461 6.275665,-3.0416 14.435526,-3.0416 8.15986,0 10.03686,0.39533 14.43552,3.0416 7.53024,4.53 11.78761,11.85969 11.7753,20.27307 -0.0111,7.44294 0.0218,7.36884 -10.51734,23.72679 -7.2634,11.27347 -14.45633,19.30788 -17.285909,19.30821 -1.064442,9e-5 -1.355929,-2.59388 -1.048461,-9.33044 z m 55.945576,1.24567 c 0.4212,-4.44655 0.33029,-8.63912 -0.20202,-9.31692 -0.53231,-0.67775 -3.08524,-1.85995 -5.67319,-2.62705 -22.81883,-6.76396 -23.99563,-36.70861 -1.77424,-45.14665 17.79745,-6.75819 36.49976,5.26388 36.52693,23.47993 0.0139,9.22824 -21.86827,41.6953 -28.10167,41.6953 -1.16638,0 -1.35523,-1.96794 -0.77581,-8.08461 z"
  />
</svg>
