<svg id="Layer_3" enable-background="new 0 0 64 64" height="512" viewBox="0 0 64 64" width="512" xmlns="http://www.w3.org/2000/svg"><g><path d="m47 62h-30c-2.209 0-4-1.791-4-4v-24c0-2.209 1.791-4 4-4h30c2.209 0 4 1.791 4 4v24c0 2.209-1.791 4-4 4z" fill="#a0a8b3"/><path d="m47 30h-30c-2.209 0-4 1.791-4 4v21.271c2.098.476 4.271.729 6.5.729 14.451 0 26.62-10.507 30.33-24.826-.724-.725-1.724-1.174-2.83-1.174z" fill="#b3b9c2"/><path d="m13 38h-4c-1.105 0-2 .895-2 2v12c0 1.105.895 2 2 2h4z" fill="#8892a0"/><path d="m26 16v-12c0-1.105-.895-2-2-2h-20c-1.105 0-2 .895-2 2v12c0 1.105.895 2 2 2h9l4 4v-4h7c1.105 0 2-.895 2-2z" fill="#8bd2f5"/><path d="m24.878 2.211c-.266-.131-.561-.211-.878-.211h-20c-1.105 0-2 .895-2 2v12c0 .183.033.357.079.526 10.086-1.577 18.488-6.996 22.799-14.315z" fill="#b9e4f9"/><path d="m38 20v-12c0-1.105.895-2 2-2h20c1.105 0 2 .895 2 2v12c0 1.105-.895 2-2 2h-9l-4 4v-4h-7c-1.105 0-2-.895-2-2z" fill="#8bd2f5"/><path d="m60.151 6.015c-.051-.004-.099-.015-.151-.015h-20c-1.105 0-2 .895-2 2v12c0 .364.104.7.274.994 10.437-.109 19.197-6.412 21.877-14.979z" fill="#b9e4f9"/><path d="m51 38h4c1.105 0 2 .895 2 2v12c0 1.105-.895 2-2 2h-4z" fill="#8892a0"/><g fill="#ebf7fe"><path d="m23 48h18v1c0 4.971-4.029 9-9 9-4.971 0-9-4.029-9-9z"/><circle cx="22" cy="41" r="3"/><circle cx="42" cy="41" r="3"/></g><path d="m23 26h18v4h-18z" fill="#8892a0"/><circle cx="32" cy="19" fill="#4472b0" r="3"/><g><path d="m55 36.905h-3v-3c0-2.757-2.243-5-5-5h-5v-3c0-.552-.448-1-1-1h-8v-2.142c1.72-.447 3-2 3-3.858 0-2.206-1.794-4-4-4s-4 1.794-4 4c0 1.858 1.28 3.411 3 3.858v2.142h-8c-.552 0-1 .448-1 1v3h-5c-2.757 0-5 2.243-5 5v3h-3c-1.654 0-3 1.346-3 3v12c0 1.654 1.346 3 3 3h3v3c0 2.757 2.243 5 5 5h30c2.757 0 5-2.243 5-5v-3h3c1.654 0 3-1.346 3-3v-12c0-1.654-1.346-3-3-3zm-25-18c0-1.103.897-2 2-2s2 .897 2 2-.897 2-2 2-2-.897-2-2zm-21 34c-.551 0-1-.449-1-1v-12c0-.551.449-1 1-1h3v14zm15-26h16v2h-16zm26 31c0 1.654-1.346 3-3 3h-30c-1.654 0-3-1.346-3-3v-24c0-1.654 1.346-3 3-3h30c1.654 0 3 1.346 3 3zm6-6c0 .551-.449 1-1 1h-3v-14h3c.551 0 1 .449 1 1z"/><path d="m41 46.905h-18c-.552 0-1 .448-1 1v1c0 5.514 4.486 10 10 10s10-4.486 10-10v-1c0-.552-.448-1-1-1zm-9 10c-4.411 0-8-3.589-8-8h16c0 4.411-3.589 8-8 8z"/><path d="m26 40.905c0-2.206-1.794-4-4-4s-4 1.794-4 4 1.794 4 4 4 4-1.794 4-4zm-6 0c0-1.103.897-2 2-2s2 .897 2 2-.897 2-2 2-2-.897-2-2z"/><path d="m42 36.905c-2.206 0-4 1.794-4 4s1.794 4 4 4 4-1.794 4-4-1.794-4-4-4zm0 6c-1.103 0-2-.897-2-2s.897-2 2-2 2 .897 2 2-.897 2-2 2z"/><path d="m16.293 22.612c.191.191.447.293.707.293.129 0 .259-.025.383-.076.373-.155.617-.519.617-.924v-3h6c1.654 0 3-1.346 3-3v-12c0-1.654-1.346-3-3-3h-20c-1.654 0-3 1.346-3 3v12c0 1.654 1.346 3 3 3h8.586zm-13.293-6.707v-12c0-.551.449-1 1-1h20c.551 0 1 .449 1 1v12c0 .551-.449 1-1 1h-7c-.552 0-1 .448-1 1v1.586l-2.293-2.293c-.188-.188-.442-.293-.707-.293h-9c-.551 0-1-.448-1-1z"/><path d="m60 4.905h-20c-1.654 0-3 1.346-3 3v12c0 1.654 1.346 3 3 3h6v3c0 .404.244.769.617.924.124.051.254.076.383.076.26 0 .516-.102.707-.293l3.707-3.707h8.586c1.654 0 3-1.346 3-3v-12c0-1.654-1.346-3-3-3zm1 15c0 .551-.449 1-1 1h-9c-.265 0-.52.105-.707.293l-2.293 2.293v-1.586c0-.552-.448-1-1-1h-7c-.551 0-1-.449-1-1v-12c0-.551.449-1 1-1h20c.551 0 1 .449 1 1z"/><path d="m5 4.905h18v2h-18z"/><path d="m5 12.905h18v2h-18z"/><path d="m7 8.905h14v2h-14z"/><path d="m41 8.905h18v2h-18z"/><path d="m41 16.905h18v2h-18z"/><path d="m43 12.905h14v2h-14z"/></g></g></svg>