<?xml version="1.0" encoding="UTF-8"?>

<svg version="1.1" viewBox="0 0 1024 1024" xmlns="http://www.w3.org/2000/svg">
  <g fill="#01575c">
    <path 
      d="m513.8 0.046576a34.945 34.945 0 0 0-7.1777 0.36914 34.945 34.945 0 0 0-10.248 3.2734l-477.06 238.53a34.945 34.945 0 0 0 0 62.504l477.06 238.53a34.945 34.945 0 0 0 31.254 0l368.37-184.19v405.51c-19.124 11.067-32 31.731-32 55.416 0.0428 2.2275 0.20186 4.4512 0.47656 6.6621-0.29031 1.7388-0.47656 3.5141-0.47656 5.3379v160c0 17.728 14.272 32 32 32h64c17.728 0 32-14.272 32-32v-160c0-1.8238-0.18625-3.5991-0.47656-5.3379 0.2747-2.2109 0.43377-4.4346 0.47656-6.6621 0-23.685-12.876-44.349-32-55.416v-437.51l44.69-22.346a34.945 34.945 0 0 0 0-62.504l-477.06-238.53a34.945 34.945 0 0 0-13.828-3.6426zm-1.7988 215.95a88 40 0 0 1 88 40 88 40 0 0 1-88 40 88 40 0 0 1-88-40 88 40 0 0 1 88-40z"
    />
    <path 
      d="m192 451.07v284.93c0 70.692 143.27 128 320 128s320-57.308 320-128v-284.93l-304.37 152.19c-9.8374 4.9184-21.416 4.9184-31.254 0z"
    />
 </g>
</svg>
