<?xml version="1.0" encoding="UTF-8"?>
<svg width="1e3" height="760" version="1.1" viewBox="0 0 1e3 760" xmlns="http://www.w3.org/2000/svg">
 <defs>
  <clipPath id="_clip1-0">
   <path d="m4e3 534.3s2.78 66.12 2.78 76.2c0 32.59-15.7 40.79-41.09 53.48-6.62 3.313-64.98 26.15-74.83 31.15-38.2 19.37-33.73 12.78-44.64 34.58-17.38 34.77-73.3 266.9-66.93 286 3.81 11.43 491 50.62 506.4 35.17 20.56-20.56-9.74-255.2-21.29-282.1-11.95-27.89-12.77-37.55-48.48-57.43-7.92-4.41-74.39-34.01-88.62-48.24-26.57-26.57 13.31-105.1-10.76-123.1-5.23-3.924-37.27 20.11-43.92 19.37-12.01-1.334-68.61-39.38-68.61-25.08z"/>
  </clipPath>
  <clipPath id="_clip2-6">
   <ellipse cx="4143" cy="331.9" rx="95.73" ry="136"/>
  </clipPath>
  <clipPath id="_clip3-2">
   <path d="m3984 391.2c-17.29 36.96-23.55 118.6-27.08 128.6-27.76 77.9-83.22 168.2-76.02 165.9 30.99-10.08 62.13-17.29 95.03-27.82 7.2-2.305 44.46-28.04 34.55-90.76-5.42-34.22-11.87-65.16-8.46-95.57 4.63-41.29 4.92-63.25 25.74-77.39 7.19-4.881 36.4-20.7 51.01-20.14 17.97 0.687 52.12 19.04 58.82 39.73 8.71 26.86 10.34 71.82 2.09 99.52-7.82 26.25-5.56 33.51-17.19 54.48-5.84 10.54-8.16 19.29-8.57 29.78-0.32 8.159 0.51 17.37 1.75 29.29 2.73 26.33 34.22 34.89 51.72 42.08 24.02 9.87 53.44 27.02 46.27 14.83-16.12-27.37-39.83-54.51-46.27-83.26-11.61-51.81 21.65-134 0-193.8-30.17-83.35-55.8-85.23-95.73-89.26-21.99-2.22-60.71 16.27-87.66 73.91z"/>
  </clipPath>
  <clipPath id="_clip4-6">
   <ellipse cx="4110" cy="917" rx="430.6" ry="72.84"/>
  </clipPath>
  <clipPath id="_clip5-1">
   <path d="m3943 631.4-183.1-6.803-108.4 36.36 247.8 15.38z"/>
  </clipPath>
  <clipPath id="_clip6-5">
   <rect x="4169" y="422.2" width="107.6" height="73.75"/>
  </clipPath>
  <clipPath id="_clip7-4">
   <rect x="4144" y="433.9" width="14.95" height="26.42"/>
  </clipPath>
  <clipPath id="_clip8">
   <path d="m3981 363.6c-0.13-0.839 1.03-1.192 1.98-1.599 1.74-0.751 5.92-0.543 7.63-0.201 1.99 0.399 5.07 3.684 6.62 4.843 4.51 3.38 40.71 35.37 45.05 38.47 10.54 7.529 22.51 9.43 35.41 7.279 3.6-0.599 8.95-2.921 13.95-9.005 7.6-9.252 7.05-19.09 11.18-27.74 3.34-7.017 10.08-15.56 18.88-13.36 0.79 0.197 2.7 0.889 3.05 1.597 0.41 0.817-1.45 2.322-1.89 2.76-2.04 2.043-3.64 5.016-4.79 7.697-1.14 2.666-2.97 5.619-3.34 8.569-0.68 5.388-0.6 10.56-2.18 15.83-0.97 3.238-3.34 8.419-2.18 11.91 1.25 3.742 3.03 5.769 3.58 10.09 0.62 4.798 0.35 6.999 1.37 6.96 0.49-0.019 18.45 0.03 25.31 0.436 2.24 0.133 1.92 40.7-0.05 43.66-0.98 1.471-40.15 0.376-45.17 0.146-20.24-0.93-39.25-28.95-52.72-42.41-5.39-5.383-56.21-58.11-58.8-61.57-0.52-0.695-2.74-3.364-2.89-4.357z"/>
  </clipPath>
  <clipPath id="_clip9">
   <rect x="3810" y="98.46" width="341.6" height="415.9"/>
  </clipPath>
 </defs>
 <g transform="matrix(1.001 0 0 .934 3.161 -114.5)" clip-rule="evenodd" fill-rule="evenodd" stroke-linejoin="round" stroke-miterlimit="2">
  <g transform="matrix(.8066 -.02572 .02835 .7317 -2543 178.6)">
   <g transform="rotate(-.9988 2884 265.1)">
    <path d="m4e3 534.3s2.78 66.12 2.78 76.2c0 32.59-15.7 40.79-41.09 53.48-6.62 3.313-64.98 26.15-74.83 31.15-38.2 19.37-33.73 12.78-44.64 34.58-17.38 34.77-73.3 266.9-66.93 286 3.81 11.43 491 50.62 506.4 35.17 20.56-20.56-9.74-255.2-21.29-282.1-11.95-27.89-12.77-37.55-48.48-57.43-7.92-4.41-74.39-34.01-88.62-48.24-26.57-26.57 13.31-105.1-10.76-123.1-5.23-3.924-37.27 20.11-43.92 19.37-12.01-1.334-68.61-39.38-68.61-25.08z" fill="#f7d8c0"/>
    <clipPath>
     <path d="m4e3 534.3s2.78 66.12 2.78 76.2c0 32.59-15.7 40.79-41.09 53.48-6.62 3.313-64.98 26.15-74.83 31.15-38.2 19.37-33.73 12.78-44.64 34.58-17.38 34.77-73.3 266.9-66.93 286 3.81 11.43 491 50.62 506.4 35.17 20.56-20.56-9.74-255.2-21.29-282.1-11.95-27.89-12.77-37.55-48.48-57.43-7.92-4.41-74.39-34.01-88.62-48.24-26.57-26.57 13.31-105.1-10.76-123.1-5.23-3.924-37.27 20.11-43.92 19.37-12.01-1.334-68.61-39.38-68.61-25.08z"/>
    </clipPath>
    <g clip-path="url(#_clip1-0)">
     <g transform="matrix(.9998 .01743 -.02085 1.196 8.259 -159.8)">
      <ellipse cx="4068" cy="530.4" rx="69.94" ry="92.88" fill="#e1b18c"/>
     </g>
     <g transform="rotate(.9988 2884 265.1)">
      <path d="m3966 640.8c30.46 27.64 24.95 187.3 83.85 187 65.01-0.395 87.13-168.5 107.5-175.3 1.92-0.642 154.4 20.98 175.5 75.87 6.38 16.58-28.32 129.8-22.7 146.7 8.68 26.03-40.7 136.1-56.63 160-22.84 34.26-451.1 66.44-463.4 33.66-7.67-20.44-5.67-190.5-6.39-211.9-2.56-76.78-6.07-170.3 83.34-194.7 13.99-3.816 73.95-43.81 98.92-21.16z" fill="#f64708"/>
     </g>
     <g transform="matrix(1.062 .5194 -.697 1.424 -3.6 -2641)">
      <path d="m4293 827.4c200.6 94.84 488-57.34 401.6 62.36-22 30.49-206.1 107.4-426.3 107.4s-386-72.63-371.6-107.4c29.56-71.3 230.9-140.6 396.4-62.36z" fill="#c23d0d"/>
     </g>
    </g>
   </g>
   <g transform="translate(-71.59,121.3)">
    <ellipse cx="4143" cy="331.9" rx="95.73" ry="136" fill="#f7d8c0"/>
    <clipPath>
     <ellipse cx="4143" cy="331.9" rx="95.73" ry="136"/>
    </clipPath>
    <g clip-path="url(#_clip2-6)">
     <g transform="matrix(.7028 .02471 -.02986 .8493 1092 -76.29)">
      <ellipse cx="4418" cy="368.2" rx="6.877" ry="23.93" fill="#0b1943"/>
     </g>
     <g transform="matrix(.7028 .02471 -.02986 .8493 1019 -78.84)">
      <ellipse cx="4418" cy="368.2" rx="6.877" ry="23.93" fill="#0b1943"/>
     </g>
     <g transform="rotate(2.013,2483,-7319)">
      <path d="m4430 320.5c-1.17 5.722-6.24 10.03-12.31 10.03-6.93 0-12.56-5.629-12.56-12.56h25.13z" fill="#e1b18c"/>
     </g>
     <g transform="matrix(-1.964 -.06903 .03513 -.9994 12810 1040)">
      <path d="m4430 318h-25.13c0-6.934 5.63-12.56 12.56-12.56 6.94 0 12.57 5.629 12.57 12.56z" fill="#ebf1fb"/>
     </g>
    </g>
   </g>
   <path d="m3984 391.2c-17.29 36.96-23.55 118.6-27.08 128.6-27.76 77.9-83.22 168.2-76.02 165.9 30.99-10.08 62.13-17.29 95.03-27.82 7.2-2.305 44.46-28.04 34.55-90.76-5.42-34.22-11.87-65.16-8.46-95.57 4.63-41.29 4.92-63.25 25.74-77.39 7.19-4.881 36.4-20.7 51.01-20.14 17.97 0.687 52.12 19.04 58.82 39.73 8.71 26.86 10.34 71.82 2.09 99.52-7.82 26.25-5.56 33.51-17.19 54.48-5.84 10.54-8.16 19.29-8.57 29.78-0.32 8.159 0.51 17.37 1.75 29.29 2.73 26.33 34.22 34.89 51.72 42.08 24.02 9.87 53.44 27.02 46.27 14.83-16.12-27.37-39.83-54.51-46.27-83.26-11.61-51.81 21.65-134 0-193.8-30.17-83.35-55.8-85.23-95.73-89.26-21.99-2.22-60.71 16.27-87.66 73.91z" fill="#132d5f"/>
   <clipPath>
    <path d="m3984 391.2c-17.29 36.96-23.55 118.6-27.08 128.6-27.76 77.9-83.22 168.2-76.02 165.9 30.99-10.08 62.13-17.29 95.03-27.82 7.2-2.305 44.46-28.04 34.55-90.76-5.42-34.22-11.87-65.16-8.46-95.57 4.63-41.29 4.92-63.25 25.74-77.39 7.19-4.881 36.4-20.7 51.01-20.14 17.97 0.687 52.12 19.04 58.82 39.73 8.71 26.86 10.34 71.82 2.09 99.52-7.82 26.25-5.56 33.51-17.19 54.48-5.84 10.54-8.16 19.29-8.57 29.78-0.32 8.159 0.51 17.37 1.75 29.29 2.73 26.33 34.22 34.89 51.72 42.08 24.02 9.87 53.44 27.02 46.27 14.83-16.12-27.37-39.83-54.51-46.27-83.26-11.61-51.81 21.65-134 0-193.8-30.17-83.35-55.8-85.23-95.73-89.26-21.99-2.22-60.71 16.27-87.66 73.91z"/>
   </clipPath>
   <g clip-path="url(#_clip3-2)">
    <g transform="rotate(2.013,2725,-2852)">
     <path d="m4155 260c-104.9 2.075-196 348.1-202.9 390.5-38.71 237.2 240-61.01 233.1-69.9-66.63-85.99 89.59-323-30.24-320.6z" fill="#0b1943"/>
    </g>
   </g>
  </g>
  <g transform="matrix(3.414 -1.209 1.333 3.097 -6798 2637)">
   <path d="m2047 114.3c-0.07 0.337-0.31-1.231-0.47-0.922-0.87 1.742-0.08 4.742-0.62 6.719-2.59 9.484-7.16 19.46-16.72 23.28-3.43 1.37-9.24-2.277-12.03-3.906-3.59-2.094-7.16-3.56-10.16-6.564-6.39-6.384-9.96-17.96-8.91-26.88 0.9-7.622 3.97-15.07 9.22-20.31 0.41-0.414 3.23 0.104 3.59 0.156 3.54 0.506 6.69 1.161 10.01 2.344 3.67 1.31 8.35 1.814 11.56 4.219 1.59 1.191 3.24 2.135 4.84 3.282 5.71 4.073 7.83 11.64 8.91 18.13 0.28 1.694-0.47 3.055-0.47 4.531" fill="#006837"/>
   <g transform="translate(2.291,2.186)">
    <path d="m2017 113.7c-1.2-2.021-2.37-4.092-3.44-6.311-1.54-3.188-2.9-6.675-3.97-10.73-0.6-2.289-1.09-4.761-1.47-7.463-0.02-0.065 0.03-0.127 0.09-0.138 0.07-0.011 0.13 0.033 0.14 0.098 0.52 2.661 1.15 5.083 1.85 7.329 1.23 3.95 2.7 7.331 4.31 10.43 1.34 2.59 2.77 4.985 4.25 7.337 0.52 0.841 1.06 1.677 1.59 2.514 2.48-2.198 4.12-4.486 5.24-6.647 0.53-1.01 0.94-1.993 1.27-2.925 0.16-0.447 0.31-0.881 0.44-1.302 0.24-0.794 0.43-1.537 0.59-2.221 0.2-0.869 0.36-1.63 0.48-2.27-0.03 0.654-0.05 1.435-0.14 2.326-0.08 0.711-0.19 1.485-0.37 2.312-0.1 0.443-0.21 0.898-0.35 1.366-0.3 0.981-0.69 2.011-1.2 3.071-1.12 2.315-2.83 4.763-5.42 7.136 2.7 4.245 5.43 8.597 7.83 13.96 0.43 0.97 0.82 2.044 1.25 3.415 1.26-2.635 3.04-4.877 4.78-7.023 0.85-1.045 1.69-2.069 2.45-3.104 0.52-0.713 1.01-1.43 1.44-2.168 0.6-1.011 1.08-2.056 1.39-3.183 0.31-1.081 0.46-2.228 0.4-3.484 0.19 1.265 0.16 2.443-0.04 3.566-0.22 1.194-0.64 2.319-1.18 3.406-0.4 0.789-0.87 1.556-1.38 2.311-0.73 1.077-1.55 2.129-2.39 3.201-1.88 2.404-3.84 4.897-5.03 7.943 0.73 2.511 1.62 5.941 3.02 11.09 0.11 0.399-0.13 0.811-0.53 0.918-0.4 0.108-0.81-0.13-0.92-0.53-1.38-5.213-2.26-8.664-2.98-11.18-0.51-1.792-0.94-3.103-1.41-4.242-0.61 0.114-1.7 0.134-3.1-0.04-3.03-0.377-7.61-1.617-11.99-4.541-1.08-0.721-2.15-1.543-3.17-2.483-0.95-0.878-1.87-1.855-2.73-2.947-1.53-1.95-2.86-4.254-3.9-6.955 1.18 2.614 2.64 4.805 4.25 6.663 0.89 1.028 1.82 1.951 2.79 2.781 1.02 0.885 2.08 1.664 3.15 2.344 4.31 2.744 8.77 3.883 11.71 4.197 1.14 0.121 2.03 0.125 2.59 0.046-2.89-6.47-6.3-11.46-9.47-16.68l-0.1-0.16c-2.57-0.168-4.74-1.272-6.56-2.762-1.47-1.204-2.71-2.644-3.73-4.011-1.47-1.979-2.48-3.781-3.22-4.338 0.79 0.49 1.99 2.164 3.6 4.04 1.07 1.261 2.33 2.617 3.81 3.729 1.57 1.182 3.38 2.095 5.48 2.308z" fill="#71cb95"/>
   </g>
   <path d="m2037 175s1.56-2.558 1.71-2.783c1.07-1.61 3.75-3.22 5.63-3.594 10.87-2.175 21.06 0.469 30.31 6.25 1.83 1.144 3.97 2.438 5.94 3.282 0.27 0.114 2.03 0.359 2.03 0.938 0 0.152-1.51-0.15-1.56-0.157-1.06-0.151-2.21-0.156-3.28-0.156-3.68 0-7.28-0.156-10.94-0.156-7.43 0-14.36-0.042-21.72-1.094-2.53-0.361-6.18-0.589-8.12-2.53z" fill="#009244"/>
   <g transform="translate(2.291,2.186)">
    <path d="m2038 171.7c-0.44 0.313-0.87 0.634-1.26 0.961-0.94 0.757-1.67 1.406-2.29 1.995-1.29 1.216-2.1 2.178-3.19 3.308-0.19 0.199-0.51 0.207-0.71 0.016-0.2-0.19-0.21-0.507-0.01-0.707 0.92-0.978 1.64-1.834 2.62-2.827 0.75-0.754 1.65-1.586 2.9-2.61 1.23-0.985 2.67-1.945 4.27-2.75 0.99-0.498 2.03-0.934 3.11-1.306 1.33-0.461 2.7-0.818 4.07-1.047 1.41-0.237 2.81-0.331 4.16-0.261-1.34 0.068-2.7 0.313-4.08 0.68-1.3 0.35-2.6 0.821-3.86 1.368-0.67 0.291-1.33 0.607-1.97 0.939 0.79-0.048 1.83-0.103 3.25-0.202 1.69-0.116 3.27-0.134 4.8-0.092 2.44 0.068 4.74 0.29 7.14 0.477 0.81 0.069 1.72 0.186 2.69 0.362 1.26 0.23 2.6 0.547 3.94 0.933 0.87 0.252 1.73 0.535 2.55 0.843 1.38 0.51 2.64 1.086 3.68 1.673 0.06 0.029 0.08 0.101 0.05 0.159-0.03 0.059-0.1 0.082-0.16 0.053-0.91-0.4-1.98-0.761-3.12-1.101-1.03-0.304-2.12-0.581-3.21-0.831-1.33-0.302-2.66-0.558-3.9-0.748-0.93-0.143-1.82-0.255-2.6-0.309l-0.02-1e-3c0.72 0.726 1.25 1.361 1.63 1.939 0.6 0.895 0.86 1.625 0.97 2.296-0.21-0.625-0.57-1.285-1.28-2.047-0.63-0.673-1.53-1.408-2.83-2.266-0.02-0.014-0.03-0.028-0.05-0.044-1.83-0.143-3.63-0.28-5.51-0.333-0.27-8e-3 -0.54-0.014-0.82-0.018 0.49 0.359 0.96 0.803 1.38 1.295 1.01 1.189 1.73 2.617 1.77 3.619 0 0.062-0.04 0.118-0.1 0.123-0.07 6e-3 -0.12-0.041-0.13-0.103-0.13-0.933-0.94-2.2-1.99-3.219-0.95-0.928-2.11-1.652-3.14-1.624-0.09-2e-3 -0.17-0.026-0.24-0.068-0.47 0.016-0.95 0.039-1.43 0.071-3.09 0.199-4.33 0.184-5.16 0.373-0.62 0.139-0.99 0.408-1.81 0.972-0.03 0.025-0.07 0.045-0.11 0.059z" fill="#71cb95"/>
   </g>
   <g transform="translate(1.347 -.6242)">
    <path d="m2038 162.2s3-4.923 5.03-7.713c7.47-10.27 20.56-16.56 33.29-16.56 6.47 0 12.67 1.417 17.19 5.938 0.42 0.424 2.97 2.57 2.97 3.282 0 4e-3 -1.98-8e-3 -2.04 0-1.2 0.15-2.38 0.852-3.59 1.094-6.13 1.226-12.49-0.119-18.6 1.406-11.6 2.9-20.32 13.29-34.25 12.56z" fill="#3ab549"/>
    <g transform="translate(.9449 2.81)">
     <path d="m2065 145.7c0.75-0.75 1.52-1.993 3.14-3.496 0.45-0.423 0.97-0.865 1.57-1.311 0.81-0.591 1.75-1.188 2.88-1.804 0.9-0.489 1.9-0.973 3.03-1.47 0.01-5e-3 0.03-1e-3 0.03 9e-3 0.01 0.01 0 0.022-0.01 0.027-1.04 0.651-1.95 1.28-2.77 1.878-1.01 0.74-1.85 1.438-2.57 2.083-0.35 0.309-0.67 0.605-0.97 0.887-0.34 0.321-0.66 0.623-0.94 0.912-0.65 0.659-1.16 1.247-1.58 1.754l0.15-0.045c1.22-0.35 2.43-0.679 3.64-1.002 1.32-0.34 3.63-0.849 6.09-1.233 2.13-0.333 4.37-0.569 6.17-0.583 0.09-3e-3 0.16 0.063 0.16 0.146 0 0.084-0.06 0.155-0.14 0.158-1.45 0.103-3.16 0.385-4.86 0.714-2.84 0.547-5.66 1.248-7.17 1.703-1.91 0.544-3.83 1.119-5.76 1.721-2.85 0.889-5.71 1.846-8.51 2.923-3.12 1.203-6.18 2.546-9.08 4.091-1.62 0.86-3.22 1.786-4.79 2.758-1.57 0.974-3.11 1.994-4.61 3.043-0.9 0.628-1.82 1.234-2.72 1.864-0.39 0.267-0.77 0.538-1.14 0.817 0 3e-3 -0.5 0.25-0.73 0.46 0.06 0.11 0.08 0.24 0.04 0.367-0.08 0.265-0.36 0.416-0.62 0.338-0.27-0.079-0.39-0.249-0.43-0.428-0.04-0.146-0.03-0.35 0.11-0.568 0.23-0.373 1.02-0.967 1.03-0.973 0.38-0.287 0.77-0.566 1.16-0.84 0.9-0.634 1.81-1.243 2.71-1.875 1.52-1.063 3.07-2.099 4.66-3.087 1.05-0.659 2.12-1.297 3.2-1.908 0.35-0.792 0.92-1.738 1.65-2.746 0.59-0.828 1.29-1.704 2.03-2.572 0.26-0.296 0.52-0.591 0.79-0.879 0.62-0.678 1.28-1.332 1.92-1.95 1.81-1.744 3.52-3.18 4.41-3.863-0.6 0.596-1.6 1.691-2.75 3.024-0.56 0.647-1.15 1.348-1.75 2.074-0.39 0.459-0.77 0.93-1.15 1.396-0.59 0.705-1.17 1.406-1.71 2.093-0.7 0.892-1.33 1.752-1.81 2.531v-4e-3c2.28-1.216 4.66-2.314 7.09-3.312 0.83-1.474 3.13-3.964 5.79-6.265 0.65-0.562 1.32-1.115 2-1.63 0.46-0.352 0.93-0.685 1.39-0.997 0.63-0.417 1.24-0.794 1.84-1.122 0.69-0.377 1.34-0.679 1.94-0.917-0.65 0.395-1.33 0.911-2.07 1.491-0.63 0.496-1.29 1.04-1.96 1.612-0.51 0.431-1.03 0.872-1.54 1.324-0.77 0.675-1.53 1.366-2.25 2.055-1.42 1.368-2.67 2.709-3.5 3.794 0.94-0.367 1.89-0.719 2.84-1.059 2.13-0.76 4.28-1.459 6.43-2.108zm-31.53 17.05c-0.04 0.039-0.06 0.076-0.06 0.109-0.01 0.032 0.01 0.061 0.04 0.084 0.08 0.045 0.04-0.115 0.02-0.193z" fill="#71cb95"/>
    </g>
   </g>
   <path d="m1973 166.6s1.6-4.258 2.54-5.601c2.96-4.226 8.98-8.817 14.22-9.689 6.63-1.105 14.13-1.695 20.63 0.469 4.12 1.374 7.39 5.304 10.22 8.293 2.09 2.206 5.24 5.286 5.24 7.569 0 0.48-1.71 0.936-2.18 1.015-1.31 0.218-2.55 0.312-3.91 0.312-4.06 0-7.9-0.432-12.03-0.156-6 0.4-12.24 0.934-18.29 0.469-2.74-0.211-5.18-1.25-7.96-1.25-1.43 0-6.06-1.769-8.48-1.431z" fill="#009244"/>
   <g transform="translate(2.291,2.186)">
    <path d="m2009 157c-0.43-0.493-0.95-1.003-1.52-1.496-0.35-0.293-0.71-0.581-1.09-0.858-1.22-0.875-2.64-1.617-4.26-1.919 1 0.031 1.95 0.221 2.85 0.525 0.63 0.215 1.22 0.484 1.78 0.794 0.44 0.244 0.86 0.513 1.24 0.798 1.04 0.771 1.88 1.647 2.47 2.408 0.02 0.03 0.04 0.062 0.06 0.096 3.1 0.784 5.56 1.792 7.67 2.949 2.75 1.513 4.89 3.281 7.04 5.138 0.92 0.789 1.88 1.689 2.82 2.607 1.47 1.429 2.9 2.9 4.04 4.049 0.2 0.195 0.2 0.512 0 0.707-0.19 0.195-0.51 0.195-0.7 0-1.15-1.142-2.58-2.604-4.05-4.025-0.93-0.9-1.88-1.785-2.78-2.559-2.1-1.806-4.19-3.528-6.88-5-0.37-0.207-0.76-0.409-1.17-0.606-0.98 0.011-2.64 0.239-4.45 0.629-0.3 0.065-0.61 0.132-0.91 0.201-0.71 0.158-1.42 0.329-2.11 0.532-1.89 0.551-3.62 1.292-4.6 2.308 0.67-0.901 1.81-1.703 3.16-2.385 0.77-0.39 1.61-0.74 2.46-1.036 0.64-0.222 1.28-0.412 1.91-0.57 0.95-0.236 1.86-0.404 2.66-0.514-1.44-0.579-3.04-1.095-4.87-1.533-0.99-0.236-1.99-0.412-3.02-0.543-1.7 0.43-3.1 0.863-4.32 1.334-0.66 0.251-1.26 0.513-1.83 0.794-1.01 0.495-1.93 1.049-2.86 1.724-0.85 0.611-1.7 1.306-2.63 2.133 0.84-0.935 1.6-1.735 2.38-2.436 0.88-0.793 1.77-1.46 2.77-2.051 0.57-0.339 1.18-0.647 1.85-0.94 0.64-0.281 1.33-0.544 2.08-0.802-0.1-7e-3 -0.2-0.013-0.3-0.019-2.55-0.155-5.13-0.131-7.62-0.128-0.02 5e-3 -0.03 0.01-0.04 0.014-1.05 0.333-1.95 0.745-2.78 1.182-0.3 0.158-0.6 0.319-0.88 0.48-0.3 0.166-0.59 0.33-0.88 0.501-0.58 0.348-1.15 0.711-1.71 1.099-0.83 0.565-1.64 1.158-2.52 1.791 0.93-0.921 1.78-1.79 2.69-2.581 0.38-0.332 0.76-0.648 1.17-0.946 0.27-0.198 0.55-0.389 0.84-0.564 0.47-0.283 0.97-0.533 1.51-0.758 0.17-0.073 0.35-0.144 0.54-0.211-2.13 0.08-5.42 0.606-8.7 1.27-3.65 0.741-7.27 1.653-9.19 2.399-0.08 0.034-0.17-5e-3 -0.21-0.087-0.03-0.081 0.01-0.175 0.09-0.208 1.9-0.828 5.51-1.915 9.17-2.783 3.09-0.733 6.21-1.306 8.37-1.486-0.82-0.634-1.83-1.273-2.94-1.8-1.52-0.719-3.2-1.229-4.8-1.268 1.62-0.111 3.37 0.26 4.98 0.836 1.65 0.589 3.13 1.401 4.18 2.171 2.84-0.02 5.84-0.117 8.79 0.044 1.71 0.093 3.41 0.275 5.05 0.599z" fill="#71cb95"/>
   </g>
   <path d="m2040 113.3c0.53 0.571-1.26 0.586-1.52 0.522-0.99-0.249-1.47-1.068-1.87-1.875-1.51-3.011-3.13-6.428-3.13-9.845 0-9.94 3.88-20.03 9.38-28.28 8.33-12.49 20.23-22.64 34.69-26.25 4.09-1.023 8.66-0.964 12.5-2.5 1.48-0.591 3.07-0.312 4.53-0.938 0.75-0.321 2.19-1.093 2.19-1.093s-1.37 1.129-2.03 1.719c-0.39 0.348-0.83 0.765-1.27 1.223-1.06 1.105-2.13 2.447-2.64 3.621-2.16 5.048-3.56 10.01-5.15 15.31-0.92 3.064-3.55 5.123-5.63 7.501-2.85 3.264-5.37 6.98-8.59 9.845-1.33 1.178-3.76 2.51-4.69 3.906-4.04 6.06-7.49 12.6-11.1 18.91-1.25 2.2-4.54 6.526-7.18 7.188-3.07 0.766-5.13 0.625-8.13 0.625" fill="#009244"/>
   <g transform="translate(2.291,2.186)">
    <path d="m2067 69.92c2.3-2.805 4.59-5.918 6.81-9.505 0.84-1.358 1.79-2.602 2.8-3.778 1.19-1.377 2.47-2.665 3.76-3.945 1.27-1.26 2.56-2.51 3.79-3.848 0.99-1.067 2.34-2.261 3.74-3.39 2.49-2 5.13-3.81 6.04-4.5-0.87 0.736-3.39 2.702-5.78 4.811-1.33 1.174-2.62 2.388-3.55 3.476-1.2 1.383-2.45 2.688-3.7 3.986-1.25 1.295-2.49 2.585-3.65 3.961-0.97 1.153-1.89 2.364-2.7 3.689-1.64 2.668-3.32 5.078-5.01 7.296 0.32-0.166 0.66-0.332 1.01-0.501 1.05-0.51 2.21-1.069 3.42-1.794 0.7-0.416 1.4-0.886 2.12-1.434 0.87-0.672 1.75-1.456 2.61-2.415 0.74-0.828 1.47-1.77 2.16-2.879-0.57 1.19-1.19 2.224-1.85 3.13-0.78 1.072-1.62 1.963-2.47 2.717-0.7 0.618-1.41 1.139-2.12 1.597-1.21 0.786-2.39 1.374-3.45 1.915-1.45 0.74-2.68 1.359-3.41 2.282-0.06 0.071-0.13 0.123-0.21 0.153-1.94 2.352-3.88 4.493-5.81 6.522-1.97 2.072-3.92 4.027-5.81 5.973 1.58 0.027 3.16-0.504 4.66-1.246 1.06-0.521 2.08-1.141 3.04-1.785 1.72-1.156 3.24-2.358 4.37-3.102-1.06 0.853-2.44 2.217-4.06 3.521-0.93 0.744-1.92 1.469-2.98 2.064-1.87 1.054-3.9 1.69-5.94 1.479-2.63 2.725-5.15 5.467-7.47 8.523-1.22 1.608-2.39 3.302-3.48 5.127 1.17 0.424 2.42 0.069 3.72-0.58 0.83-0.418 1.67-0.964 2.53-1.531 0.56-0.367 1.12-0.745 1.69-1.103 0.73-0.465 1.47-0.898 2.2-1.255 0.82-0.396 1.62-0.688 2.4-0.82-0.74 0.235-1.48 0.637-2.22 1.123-0.68 0.437-1.35 0.944-2.03 1.464-0.53 0.407-1.06 0.818-1.6 1.215-0.86 0.633-1.72 1.222-2.57 1.683-1.54 0.84-3.06 1.226-4.51 0.729-0.04-0.017-0.08-0.039-0.12-0.066-0.53 0.912-1.03 1.856-1.52 2.839-0.54 1.078-1.11 2.115-1.74 3.246-0.02 0.119-0.08 0.228-0.17 0.306-1.13 2.019-2.43 4.366-4.07 7.775-1.41 2.953-3.07 6.704-5.06 11.73-0.11 0.257-0.4 0.383-0.65 0.281-0.26-0.102-0.38-0.393-0.28-0.649 2-5.055 3.67-8.826 5.09-11.79 1.65-3.438 2.97-5.796 4.1-7.826-1.08-4.244-1.25-8.14-0.98-11.67 0.2-2.552 0.62-4.914 1.11-7.072 0.38-1.655 0.8-3.187 1.15-4.603 0.25-0.96 0.85-2.938 1.47-4.71 0.45-1.262 0.91-2.417 1.27-3.029-0.31 0.633-0.69 1.814-1.05 3.097-0.51 1.797-0.99 3.791-1.18 4.757-0.29 1.427-0.62 2.976-0.94 4.639-0.42 2.138-0.81 4.466-0.96 6.981-0.2 3.156-0.05 6.604 0.82 10.33 0.41-0.755 0.8-1.485 1.18-2.234 1.68-3.364 3.57-6.291 5.62-8.977 0.53-0.701 1.08-1.386 1.63-2.058-0.57-3.316-0.35-8.43 0.52-13.47 0.19-1.111 0.42-2.219 0.67-3.301 0.27-1.117 0.57-2.205 0.9-3.245 0.29-0.887 0.59-1.736 0.92-2.536 0.55-1.371 1.16-2.59 1.8-3.603-0.54 1.059-1.03 2.323-1.47 3.724-0.25 0.815-0.49 1.673-0.71 2.566-0.27 1.046-0.51 2.136-0.72 3.249-0.22 1.078-0.41 2.176-0.58 3.277-0.68 4.529-0.91 9.103-0.48 12.32 2.97-3.485 6.19-6.66 9.51-10.05 0.32-0.657 0.61-1.286 0.88-1.885 0.16-0.377 0.32-0.741 0.47-1.094 0.59-1.386 1.02-2.608 1.3-3.723 0.46-1.832 0.57-3.351 0.63-4.695 0.05-1.193 0.07-2.25 0.25-3.256 0.25-1.36 0.81-2.624 1.62-3.758 0.76-1.065 1.74-2.011 2.87-2.833-1.04 0.906-1.91 1.924-2.57 3.03-0.68 1.133-1.13 2.356-1.28 3.658-0.13 0.987-0.09 2.016-0.1 3.18-0.02 1.396-0.09 2.979-0.54 4.888-0.27 1.166-0.67 2.46-1.32 3.887-0.1 0.215-0.21 0.432-0.32 0.651 0.13-0.139 0.27-0.278 0.4-0.418 1.95-2.04 3.92-4.193 5.88-6.563 0.01-0.029 0.03-0.057 0.05-0.083 0.07-0.084 0.14-0.165 0.21-0.244z" fill="#71cb95"/>
   </g>
   <path d="m1998 45.4c-3.95-0.989-10.15-1.966-13.11-1.596-0.44 0.054 0.93 2.756 1.7 9.662 0.01 0.135 1.39 7.414 1.64 11.9 0.81 14.61 11.1 32.04 26.41 35.32 3 0.643 6.49 2.7 9.22 4.063 0.19 0.094 2.92 1.453 2.97 1.407 0.35-0.349-0.37-2.461-0.47-2.969-0.6-2.969-0.63-5.872-0.63-8.908 0-13.43 0.82-29.46-10.15-39.07-1.7-1.483-3.9-2.1-5.79-3.281-3.34-2.091-7.81-5.532-11.79-6.529z" fill="#3ab549"/>
   <g transform="translate(2.291,2.186)">
    <path d="m2002 59.08c-0.33-0.501-0.69-1.019-1.07-1.55-0.5-0.699-1.03-1.421-1.6-2.154-0.79-1.025-1.63-2.074-2.54-3.109-0.78-0.88-1.6-1.751-2.46-2.596-1.27-1.243-2.63-2.43-4.08-3.488-0.05-0.032-0.06-0.096-0.03-0.143s0.09-0.06 0.14-0.028c1.61 1.008 3.12 2.155 4.53 3.389 1.45 1.279 2.79 2.642 4 4.012 1.05 1.19 2 2.385 2.84 3.53 0.88 1.188 1.65 2.323 2.3 3.342 0.1-0.49 0.24-0.953 0.41-1.418 0.42-1.203 0.98-2.421 0.97-4.283 0-1.264-0.26-2.816-0.99-4.855 0.92 2.002 1.32 3.553 1.43 4.836 0.14 1.576-0.16 2.741-0.46 3.814-0.31 1.084-0.64 2.06-0.47 3.315 0.2 0.329 0.38 0.638 0.55 0.924 1.29 2.179 2.38 4.386 3.36 6.613 0.55 1.247 1.07 2.501 1.58 3.76 0.38-1.685 0.61-3.26 0.75-4.747 0.09-0.954 0.13-1.87 0.14-2.758 0.03-1.625-0.05-3.148-0.22-4.615-0.17-1.589-0.44-3.104-0.74-4.595 0.44 1.465 0.85 2.955 1.16 4.532 0.28 1.474 0.49 3.016 0.56 4.669 0.04 0.91 0.03 1.852-0.03 2.833-0.12 1.929-0.44 4.004-0.98 6.273 1.26 3.187 2.51 6.396 4.05 9.598-0.08-1.003-0.07-1.989 0-2.965 0.12-1.741 0.4-3.446 0.71-5.143 0.2-1.126 0.41-2.247 0.58-3.374 0.14-0.937 0.25-1.874 0.31-2.825 0.05-0.939 0.06-1.884-0.03-2.852 0.19 0.96 0.3 1.908 0.33 2.855 0.04 0.967 0 1.926-0.08 2.884-0.1 1.144-0.26 2.282-0.42 3.423-0.23 1.68-0.48 3.363-0.55 5.079-0.08 1.919 0.06 3.878 0.66 5.915 0.01 0.037 0.02 0.074 0.02 0.111 1.66 3.353 3.65 7.382 5.84 11.08 1.84 3.115 3.82 5.992 5.84 8.009 0.2 0.196 0.2 0.512 0 0.708-0.2 0.195-0.51 0.195-0.71 0-2.07-2.069-4.1-5.015-5.99-8.207-0.14-0.236-0.28-0.473-0.42-0.711-0.08 0.032-0.18 0.041-0.27 0.021-5.51-1.185-7.14-2.858-8.75-4.477-0.86-0.864-1.71-1.702-3.21-2.458-0.85-0.433-1.91-0.844-3.3-1.225-0.69-0.19-1.46-0.382-2.32-0.558 0.88 0.066 1.67 0.149 2.38 0.263 1.47 0.236 2.6 0.567 3.51 0.954 1.63 0.694 2.56 1.568 3.49 2.454 1.52 1.436 3.04 2.943 7.86 3.959-0.78-1.381-1.53-2.786-2.24-4.164-4.79-3.559-7.07-6.493-8.96-9.091-1.1-1.51-2.07-2.897-3.34-4.234-0.5-0.529-1.05-1.052-1.67-1.574-0.55-0.463-1.16-0.925-1.84-1.392-0.78-0.531-1.65-1.071-2.66-1.614 1.07 0.433 2 0.868 2.83 1.325 0.75 0.408 1.4 0.829 2 1.262 0.68 0.493 1.27 1.002 1.81 1.526 1.35 1.307 2.37 2.702 3.52 4.217 1.67 2.196 3.61 4.661 7.26 7.539-0.99-1.965-1.9-3.823-2.7-5.419-1.77-3.528-3.15-7.067-4.55-10.58l-0.02-0.041c-0.03-0.021-0.06-0.046-0.08-0.075-1.89-2.111-3.48-3.505-4.92-4.54-2.43-1.738-4.48-2.457-6.89-3.847-1.8-1.034-3.78-2.441-6.29-4.869 2.63 2.252 4.69 3.505 6.52 4.442 2.51 1.283 4.59 1.959 7.1 3.63 1.1 0.733 2.29 1.66 3.62 2.916-0.4-0.955-0.8-1.906-1.22-2.855-0.96-2.19-2.02-4.363-3.29-6.508-0.37-0.632-0.82-1.375-1.34-2.199-1.69-1.383-3.07-1.683-4.56-1.999-1.48-0.315-3.06-0.636-5.09-1.932-1.49-0.949-3.23-2.425-5.35-4.811 2.24 2.227 4.05 3.574 5.57 4.428 2.03 1.134 3.56 1.37 5 1.6 1.07 0.17 2.09 0.344 3.2 0.843z" fill="#71cb95"/>
   </g>
   <path d="m2040 45.86c-2.43 6.096-5.19 19.13-7.22 32.28-0.86 5.64-1.59 11.3-2.11 16.44-0.69 6.934-0.99 12.93-0.78 16.66 0.39 6.512 2 13.05 2.92 19.58 0.39 2.748 0.65 5.495 0.64 8.239-0.04 7.498 0.66 15.38 0.62 23.1-0.02 3.28-0.17 6.532-0.58 9.716-0.32 2.525-1.29 6.548-2.48 10.62-1.11 3.811-2.4 7.663-3.54 10.38-0.32 0.765 0.05 1.643 0.81 1.96 0.77 0.317 1.65-0.047 1.96-0.812 1.15-2.806 2.46-6.785 3.57-10.72 1.2-4.248 2.16-8.446 2.48-11.08 0.39-3.297 0.52-6.664 0.5-10.06-0.03-7.731-0.81-15.6-0.85-23.11-0.01-2.863-0.31-5.727-0.75-8.589-0.99-6.462-2.68-12.92-3.16-19.37-0.28-3.662-0.06-9.543 0.45-16.36 0.38-5.128 0.94-10.78 1.6-16.42 1.56-13.18 3.74-26.28 5.92-32.46z" fill="#71cb95"/>
   <path d="m1995 119.8c-3.13-1.739-15.08-0.596-14.93-0.748 1.91-1.908 8.75-2.839 11.32-3.036 3.39-0.261 5.95-0.588 9.55-0.123 4.38 0.565 8.4 0.641 12.66 1.25 4.14 0.592 8.35 0.612 12.5 1.25 3.81 0.586 14.27 4.086 12.35 9.845-0.72 2.152-2.91 4.595-4.69 5.782-2.47 1.647-5.08 3.711-8.13 4.219-2.61 0.435-6.24-0.932-8.59-1.875-8.88-3.55-13.79-11.98-22.04-16.56z" fill="#009244"/>
   <path d="m1980 119s5.63-3.202 18.84-3.269c1.23-6e-3 -4.18-3.467-5.15-4.275-2.4-2.001-8.58-4.647-11.72-3.751-3.05 0.871-3.75 4.944-3.75 7.501 0 0.748 0.79 3.794 1.78 3.794z" fill="#006837"/>
   <g transform="translate(2.291,2.186)">
    <path d="m2010 124.3c-0.1-0.891-0.32-1.757-0.61-2.565-0.24-0.689-0.52-1.331-0.81-1.91-0.66-1.33-1.34-2.316-1.55-2.73 0.25 0.395 1 1.33 1.8 2.59 0.35 0.559 0.71 1.177 1.05 1.844 0.51 1.028 0.95 2.159 1.16 3.349 0.44 0.247 0.85 0.478 1.21 0.688 2.07 1.219 3.57 2.105 4.93 2.942 0.14 0.089 0.28 0.177 0.42 0.265 0.1-1.609 0.22-3.989-0.25-6.199-0.33-1.562-0.96-3.03-2.08-4.077 1.22 0.98 1.95 2.431 2.42 3.99 0.76 2.501 0.8 5.282 0.87 6.884 0.6 0.38 1.2 0.77 1.85 1.194 0.44 0.289 0.86 0.574 1.26 0.856 0.59-1.689 1.01-4.603 0.93-7.287-0.05-1.96-0.36-3.796-1.12-4.965 0.89 1.111 1.41 2.942 1.63 4.93 0.31 2.918-0.03 6.144-0.59 7.893 0 0.012 0 0.024-0.01 0.035 2.38 1.765 4.04 3.406 5.32 5.002 2.24 2.793 3.29 5.443 5.04 8.378 0.14 0.237 0.06 0.544-0.18 0.686-0.23 0.141-0.54 0.064-0.68-0.173-1.73-2.884-2.78-5.493-4.99-8.237-1.25-1.545-2.87-3.134-5.19-4.842-0.36 0.18-0.8 0.302-1.3 0.357-0.94 0.103-2.1 3e-3 -3.31-0.215-2.75-0.495-5.72-1.575-6.59-2.089 0.9 0.434 3.92 1.266 6.67 1.516 1.41 0.128 2.74 0.118 3.62-0.216-0.35-0.243-0.71-0.489-1.09-0.737-1.14-0.743-2.13-1.375-3.21-2.044-1.35-0.838-2.84-1.733-4.89-2.959-1.16-0.705-2.79-1.627-4.56-2.627-0.89-0.504-1.82-1.029-2.75-1.552-1.43-0.8-2.86-1.591-4.16-2.296-2.49-1.359-4.49-2.392-5.05-2.479-0.02-2e-3 -0.03-0.014-0.02-0.028 0-0.015 0.01-0.025 0.02-0.023 0.32 0.022 1.09 0.283 2.16 0.717 1.29 0.523 3 1.285 4.83 2.157 1.66 0.792 3.43 1.668 5.07 2.521 0.97 0.501 1.89 0.996 2.73 1.456z" fill="#71cb95"/>
   </g>
  </g>
  <g transform="matrix(.8071 0 0 .5269 -2716 303.2)">
   <g transform="matrix(.9645 0 0 .973 164.5 65.64)">
    <path d="m4110 891.6c217.1 0 401.1-35.35 430.6 0 2.8 3.35 0 21.97 0 25.45 0 40.2-192.9 72.84-430.6 72.84s-430.6-32.64-430.6-72.84c0-4.118-3.89-21.52 0-25.45 34.07-34.46 217.3 0 430.6 0z" fill="#8d5b35"/>
   </g>
   <g transform="matrix(.9645 0 0 .804 164.5 195.8)">
    <ellipse cx="4110" cy="917" rx="430.6" ry="72.84" fill="#c08b63"/>
    <clipPath>
     <ellipse cx="4110" cy="917" rx="430.6" ry="72.84"/>
    </clipPath>
    <g clip-path="url(#_clip4-6)">
     <g transform="matrix(1.547,0,0,1.052,-1712,193.8)">
      <path d="m3943 631.4-183.1-6.803-108.4 36.36 247.8 15.38z" fill="#fff"/>
      <clipPath>
       <path d="m3943 631.4-183.1-6.803-108.4 36.36 247.8 15.38z"/>
      </clipPath>
      <g clip-path="url(#_clip5-1)">
       <g transform="matrix(1.251,0,0,1.349,-1407,-561.6)">
        <ellipse cx="4273" cy="935.1" rx="282.8" ry="31.58" fill="#e3e3e3"/>
       </g>
      </g>
     </g>
    </g>
   </g>
  </g>
  <g transform="matrix(1.647 0 0 1.494 -5845 -233.3)">
   <g transform="matrix(1.375,0,0,1.011,-1750,207.8)">
    <rect x="4169" y="422.2" width="107.6" height="73.75" fill="#132d5f"/>
    <clipPath>
     <rect x="4169" y="422.2" width="107.6" height="73.75"/>
    </clipPath>
    <g clip-path="url(#_clip6-5)">
     <g transform="matrix(.4311 0 0 .5347 2371 82.72)">
      <path d="m4176 783.8c-2.05 1.651 4.2-3.219 6.51-4.48 6.22-3.394 12.09-7.186 18.17-10.9 14.99-9.161 32.94-15.46 49.31-21.8 44.54-17.24 104.7-41.23 152.6-39.97 19.95 0.525 53.46 8.171 57.1 32.7 3.38 22.83-30.31 29.88-46.2 33.74-19.44 4.729-39.04 11.34-59.17 12.46-16.69 0.926-33.69-4.729-50.35-5.709-21.27-1.252-42.54 0.336-63.84-1.039-17.43-1.124-38.33-1.503-55.03 3.634-1.4 0.433-12.97 0.11-12.97 1.038" fill="#0b1943"/>
     </g>
    </g>
   </g>
   <g transform="matrix(1.718,0,0,1.155,-3613,-63.53)">
    <rect x="4431" y="601" width="48.08" height="132" fill="#fff"/>
   </g>
   <g transform="matrix(1.865,0,0,2.257,-3773,-340.5)">
    <rect x="4144" y="433.9" width="14.95" height="26.42" fill="#fff"/>
    <clipPath>
     <rect x="4144" y="433.9" width="14.95" height="26.42"/>
    </clipPath>
    <g clip-path="url(#_clip7-4)">
     <g transform="matrix(.29 0 0 .2397 2950 280.1)">
      <path d="m4118 662.1c-0.49 0.999 1.87-1.252 2.93-1.604 2.25-0.75 4.51-1.554 6.81-2.129 7.33-1.832 15-2.818 22.36-4.046 3.47-0.578 7.16-0.628 10.65-1.064 0.95-0.12 3.04-0.929 4.04-0.426 1.81 0.903 8.58 0.943 10.65 0.426 2.17-0.542 4.08-2.191 6.39-2.769 8.58-2.145 18.02-5.235 27.04-7.239 5.05-1.122 9.85-3.008 14.48-5.323 2.35-1.178 5.86-1.776 4.9-5.111-0.54-1.862-3.2-1.816-4.69-2.129-6.57-1.383-12.68-1.523-19.37-1.916-18.16-1.069-33.8 3.771-51.32 7.665-6.16 1.368-12.45 2.798-18.74 3.407-3.88 0.376-8.43 0.313-12.14 1.703-5.43 2.04-5.07 11.6-5.74 15.97-0.38 2.422 0 5.962 1.7 5.962" fill="#ebf1fb"/>
     </g>
    </g>
   </g>
   <g transform="translate(-182.8,213.1)">
    <circle cx="4158" cy="475.7" r="3.361" fill="#a13939"/>
   </g>
   <g transform="translate(-182.9,213.5)">
    <path d="m4030 402.2c-2.23-2.64-7.74-11.66-7.91-12.11-0.68-1.795-1.15-3.478-2.1-5.151-2.83-4.941-10.71-22.35-10.3-22.71 6.77-5.903 13.79 6.206 14.78 7.637 2.52 3.635 4.61 7.581 7.06 11.25 1.34 2.011 2.62 3.954 3.91 6.009 0.2 0.326 2.15 3.145 2.19 3.052 0.23-0.455-1.14-5.045-1.52-6.772-1.33-5.977-6.29-21.04-6.01-22.7 0.23-1.421 2.34-2.419 3.62-2.098 2.31 0.576 4.5 3.042 5.91 4.864 3.56 4.568 9.94 23.96 11 25.88 0.39 0.698 3.1 7.16 3.1 6.874 0-0.731-4-36.29-1.99-37.1 1.06-0.421 2.24 1.467 3.16 1.774 2.95 0.983 4.51 3.829 5.43 6.581 1.6 4.794 2.89 11.4 3.48 16.38 2.6 21.84 13.73 26.62 17 29.39 1.05 0.891 1.25 2.349 0.69 3.83-2.6 6.93-11.55 6.913-17.45 6.962-3.64 0.031-6.36-1.074-9.66-2.653-9.27-4.435-17.78-11.37-24.39-19.19z" fill="#e1b18c"/>
   </g>
   <g transform="matrix(9.92,0,0,1,-35209,212.3)">
    <path d="m3954 353.8c0-0.754-0.06-1.365-0.14-1.365h-29.22c-0.04 0-0.07 0.146-0.1 0.406s-0.04 0.612-0.04 0.98v8.403c0 0.355 0.01 0.695 0.04 0.945 0.02 0.251 0.06 0.392 0.09 0.392h29.24c0.07 0 0.13-0.599 0.13-1.338z" fill="#ebf1fb"/>
   </g>
   <g transform="matrix(9.92 0 0 .266 -35209 479.2)">
    <path d="m3954 357.6c0-2.834-0.06-5.131-0.14-5.131h-29.22c-0.04 0-0.07 0.549-0.1 1.526s-0.04 2.301-0.04 3.683v0.892c0 1.332 0.01 2.611 0.04 3.553 0.02 0.942 0.06 1.472 0.09 1.472h29.24c0.03 0 0.07-0.53 0.09-1.473 0.03-0.944 0.04-2.223 0.04-3.557z" fill="#a5aabb"/>
   </g>
   <g transform="translate(-182.9,213.5)">
    <path d="m3981 363.6c-0.13-0.839 1.03-1.192 1.98-1.599 1.74-0.751 5.92-0.543 7.63-0.201 1.99 0.399 5.07 3.684 6.62 4.843 4.51 3.38 40.71 35.37 45.05 38.47 10.54 7.529 22.51 9.43 35.41 7.279 3.6-0.599 8.95-2.921 13.95-9.005 7.6-9.252 7.05-19.09 11.18-27.74 3.34-7.017 10.08-15.56 18.88-13.36 0.79 0.197 2.7 0.889 3.05 1.597 0.41 0.817-1.45 2.322-1.89 2.76-2.04 2.043-3.64 5.016-4.79 7.697-1.14 2.666-2.97 5.619-3.34 8.569-0.68 5.388-0.6 10.56-2.18 15.83-0.97 3.238-3.34 8.419-2.18 11.91 1.25 3.742 3.03 5.769 3.58 10.09 0.62 4.798 0.35 6.999 1.37 6.96 0.49-0.019 18.45 0.03 25.31 0.436 2.24 0.133 1.92 40.7-0.05 43.66-0.98 1.471-40.15 0.376-45.17 0.146-20.24-0.93-39.25-28.95-52.72-42.41-5.39-5.383-56.21-58.11-58.8-61.57-0.52-0.695-2.74-3.364-2.89-4.357z" fill="#f7d8c0"/>
    <clipPath>
     <path d="m3981 363.6c-0.13-0.839 1.03-1.192 1.98-1.599 1.74-0.751 5.92-0.543 7.63-0.201 1.99 0.399 5.07 3.684 6.62 4.843 4.51 3.38 40.71 35.37 45.05 38.47 10.54 7.529 22.51 9.43 35.41 7.279 3.6-0.599 8.95-2.921 13.95-9.005 7.6-9.252 7.05-19.09 11.18-27.74 3.34-7.017 10.08-15.56 18.88-13.36 0.79 0.197 2.7 0.889 3.05 1.597 0.41 0.817-1.45 2.322-1.89 2.76-2.04 2.043-3.64 5.016-4.79 7.697-1.14 2.666-2.97 5.619-3.34 8.569-0.68 5.388-0.6 10.56-2.18 15.83-0.97 3.238-3.34 8.419-2.18 11.91 1.25 3.742 3.03 5.769 3.58 10.09 0.62 4.798 0.35 6.999 1.37 6.96 0.49-0.019 18.45 0.03 25.31 0.436 2.24 0.133 1.92 40.7-0.05 43.66-0.98 1.471-40.15 0.376-45.17 0.146-20.24-0.93-39.25-28.95-52.72-42.41-5.39-5.383-56.21-58.11-58.8-61.57-0.52-0.695-2.74-3.364-2.89-4.357z"/>
    </clipPath>
    <g clip-path="url(#_clip8)">
     <g transform="matrix(.5409 0 0 .5409 1911 77.98)">
      <path d="m4107 523.5c1.21-0.209-1.09 3.278-1.25 3.512-1.73 2.594-4.1 4.44-6.79 5.976-6.94 3.968-15.33 4.724-22.27 8.692-9.32 5.326-16.55 13.29-23.9 20.64-2.85 2.843-5.55 6.915-8.97 8.964-0.16 0.097-2.48 2.395-2.99 1.63-3.77-5.652 2.08-15.05 4.89-19.56 10.27-16.42 18.08-30.98 38.85-32.87 6.32-0.575 12.18 0.271 18.47 0.271 0.78 0 6.13 0.506 6.25 1.087 0.23 1.165-0.55 2.266-0.55 3.26" fill="#eac5a9"/>
     </g>
     <g transform="matrix(.5409 0 0 .5409 1911 77.98)">
      <path d="m3830 518c0.57 0.228 0.75-1.849 0.13-1.849-0.61 0-4.2 3.873-5.16 4.617-2.71 2.106-10.57 11.8-6.79 14.94 3.15 2.632 11.85 1.957 15.75 2.445 14.44 1.805 27.2 8.332 40.48 13.31 2.9 1.092 9.81 6.46 12.49 2.445 3.23-4.841-4.53-12.68-7.61-15.76-3.37-3.37-7.3-5.846-10.86-8.964-7.96-6.963-13.17-15.48-24.99-15.48-4.12 0-6.1 1.524-9.78 2.445-1.21 0.301-2.93-0.939-3.53 0.271" fill="#eac5a9"/>
     </g>
     <g transform="matrix(.5409 0 0 .5409 1909 78.74)">
      <path d="m4129 642.1c-14.76-6.946-51.28 0.491-51.36 1.615-0.37 4.794 3.09 10.25 1.02 17.38-3.64 12.53-12.88 16.36-12.66 16.8 2.17 4.352 23.04 2.885 25.89 0.684 26.22-20.26 39.09-21.38 40.57-25.84 0.96-2.852-1.84-9.861-3.46-10.63z" fill="#eac5a9"/>
     </g>
    </g>
   </g>
  </g>
  <g transform="matrix(1.242 0 0 1.199 -4407 -21.84)">
   <g transform="matrix(.7996 .02397 -.02484 .8285 762.5 -5.924)">
    <path d="m4152 98.46c-115.2 12.91-228.4 6.919-341.6 0v415.9c109.2-3.787 222.4-4.351 341.6 0-5.95-138.1-3.71-276.9 0-415.9z" fill="#a5aabb"/>
   </g>
   <g transform="matrix(.7999 0 0 .8289 752.1 83.55)">
    <path d="m4152 98.46c-115.2 12.91-228.4 6.919-341.6 0v415.9c109.2-3.787 222.4-4.351 341.6 0-5.95-138.1-3.71-276.9 0-415.9z" fill="#d7d9e1"/>
   </g>
   <g transform="matrix(.7999 0 0 .8289 744.1 74.5)">
    <rect x="3810" y="98.46" width="341.6" height="415.9" fill="#fff"/>
    <clipPath>
     <rect x="3810" y="98.46" width="341.6" height="415.9"/>
    </clipPath>
    <g clip-path="url(#_clip9)">
     <g transform="matrix(.5 0 0 1 2076 0)">
      <rect x="3810" y="98.46" width="341.6" height="415.9" fill="#ebf1fb"/>
     </g>
     <g transform="matrix(5.577,0,0,1.422,-18604,-289.8)">
      <rect x="4018" y="269.7" width="62.59" height="51.04" fill="#132d5f"/>
     </g>
     <g transform="matrix(2.787,0,0,1.422,-7217,-289.8)">
      <rect x="4018" y="269.7" width="62.59" height="51.04" fill="#002445"/>
     </g>
     <g transform="matrix(4.833 0 0 .511 -15590 62.75)">
      <rect x="4018" y="269.7" width="62.59" height="51.04" fill="#ffc900"/>
     </g>
     <g transform="matrix(2.416 0 0 .511 -5729 62.75)">
      <rect x="4018" y="269.7" width="62.59" height="51.04" fill="#eaa900"/>
     </g>
     <g transform="matrix(4.833 0 0 .511 -15590 291.3)">
      <rect x="4018" y="269.7" width="62.59" height="51.04" fill="#ffc900"/>
     </g>
     <g transform="matrix(2.34 0 0 .1836 -5496 199.3)">
      <rect x="4018" y="269.7" width="62.59" height="51.04" fill="#d7d9e1"/>
     </g>
     <g transform="matrix(1.17 0 0 .1836 -720.9 199.3)">
      <rect x="4018" y="269.7" width="62.59" height="51.04" fill="#a5aabb"/>
     </g>
     <g transform="matrix(1.371 0 0 .1851 -1679 226.4)">
      <rect x="4018" y="269.7" width="62.59" height="51.04" fill="#ffc900"/>
     </g>
     <g transform="matrix(2.416 0 0 .511 -5729 291.3)">
      <rect x="4018" y="269.7" width="62.59" height="51.04" fill="#eaa900"/>
     </g>
     <g transform="matrix(1.371,0,0,1.896,-1679,-199.9)">
      <rect x="4018" y="269.7" width="62.59" height="51.04" fill="#d7d9e1"/>
     </g>
     <g transform="matrix(1.371 0 0 .1866 -1464 225.9)">
      <rect x="4018" y="269.7" width="62.59" height="51.04" fill="#eaa900"/>
     </g>
     <g transform="matrix(1.371,0,0,1.911,-1464,-204.8)">
      <rect x="4018" y="269.7" width="62.59" height="51.04" fill="#a5aabb"/>
     </g>
     <g transform="matrix(1.371 0 0 .1881 -1570 225.4)">
      <rect x="4018" y="269.7" width="62.59" height="51.04" fill="#ffc900"/>
     </g>
     <g transform="matrix(.6854 0 0 .1881 1227 225.4)">
      <rect x="4018" y="269.7" width="62.59" height="51.04" fill="#eaa900"/>
     </g>
     <g transform="matrix(1.371,0,0,1.927,-1570,-209.8)">
      <rect x="4018" y="269.7" width="62.59" height="51.04" fill="#d7d9e1"/>
     </g>
     <g transform="matrix(.6854 0 0 1.927 1227 -209.8)">
      <rect x="4018" y="269.7" width="62.59" height="51.04" fill="#a5aabb"/>
     </g>
     <g transform="matrix(2.777 0 0 .4657 -7200 -6.68)">
      <rect x="4018" y="269.7" width="62.59" height="51.04" fill="#fff"/>
     </g>
     <g transform="matrix(1.525,0,0,1.617,-2294,-248.8)">
      <circle cx="4022" cy="234.9" r="7.309" fill="#f64708"/>
     </g>
     <g transform="matrix(1.525,0,0,1.617,-2262,-248.8)">
      <circle cx="4022" cy="234.9" r="7.309" fill="#ffc900"/>
     </g>
     <g transform="matrix(1.525,0,0,1.617,-2229,-248.8)">
      <circle cx="4022" cy="234.9" r="7.309" fill="#3ab549"/>
     </g>
    </g>
   </g>
  </g>
 </g>
</svg>
